<mxfile host="app.diagrams.net" modified="2024-02-17T18:47:55.838Z" agent="Mozilla/5.0 (Windows NT 10.0; Win64; x64) AppleWebKit/537.36 (KHTML, like Gecko) Chrome/121.0.0.0 Safari/537.36" etag="rUK_pyTk4KTe52DxnixO" version="23.1.5" type="device">
  <diagram name="Page-1" id="zdfs-AasULe0J1CP9fPH">
    <mxGraphModel dx="808" dy="402" grid="1" gridSize="10" guides="1" tooltips="1" connect="1" arrows="1" fold="1" page="1" pageScale="1" pageWidth="850" pageHeight="1100" math="0" shadow="0">
      <root>
        <mxCell id="0" />
        <mxCell id="1" parent="0" />
        <mxCell id="4Y1HdvVBECPAu4U7Cjkl-18" style="edgeStyle=orthogonalEdgeStyle;rounded=0;orthogonalLoop=1;jettySize=auto;html=1;exitX=0;exitY=0.5;exitDx=0;exitDy=0;entryX=0.5;entryY=0;entryDx=0;entryDy=0;" parent="1" source="4Y1HdvVBECPAu4U7Cjkl-1" target="PLrm1QrhNxz2fBl1tg_x-34" edge="1">
          <mxGeometry relative="1" as="geometry">
            <mxPoint x="40" y="180" as="targetPoint" />
          </mxGeometry>
        </mxCell>
        <mxCell id="u9IJCRDn-GjgMqQaBnn5-43" value="" style="edgeStyle=orthogonalEdgeStyle;rounded=0;orthogonalLoop=1;jettySize=auto;html=1;entryX=0;entryY=0.25;entryDx=0;entryDy=0;exitX=0.996;exitY=0.589;exitDx=0;exitDy=0;exitPerimeter=0;" edge="1" parent="1" source="4Y1HdvVBECPAu4U7Cjkl-1">
          <mxGeometry relative="1" as="geometry">
            <mxPoint x="400" y="129" as="sourcePoint" />
            <mxPoint x="640.83" y="121.25" as="targetPoint" />
            <Array as="points">
              <mxPoint x="641" y="128" />
            </Array>
          </mxGeometry>
        </mxCell>
        <mxCell id="u9IJCRDn-GjgMqQaBnn5-46" value="" style="edgeStyle=orthogonalEdgeStyle;rounded=0;orthogonalLoop=1;jettySize=auto;html=1;" edge="1" parent="1" source="4Y1HdvVBECPAu4U7Cjkl-1" target="u9IJCRDn-GjgMqQaBnn5-30">
          <mxGeometry relative="1" as="geometry" />
        </mxCell>
        <mxCell id="4Y1HdvVBECPAu4U7Cjkl-1" value="" style="ellipse;whiteSpace=wrap;html=1;fillColor=#b1ddf0;strokeColor=#10739e;" parent="1" vertex="1">
          <mxGeometry x="170" y="40" width="220" height="150" as="geometry" />
        </mxCell>
        <mxCell id="4Y1HdvVBECPAu4U7Cjkl-7" value="" style="edgeStyle=orthogonalEdgeStyle;rounded=0;orthogonalLoop=1;jettySize=auto;html=1;" parent="1" source="4Y1HdvVBECPAu4U7Cjkl-5" target="4Y1HdvVBECPAu4U7Cjkl-6" edge="1">
          <mxGeometry relative="1" as="geometry" />
        </mxCell>
        <mxCell id="4Y1HdvVBECPAu4U7Cjkl-5" value="OPEN NEW ACCOUNT" style="text;html=1;strokeColor=#996185;fillColor=#e6d0de;align=center;verticalAlign=middle;whiteSpace=wrap;rounded=0;gradientColor=#d5739d;" parent="1" vertex="1">
          <mxGeometry x="630" y="100" width="120" height="50" as="geometry" />
        </mxCell>
        <mxCell id="PLrm1QrhNxz2fBl1tg_x-9" value="" style="edgeStyle=orthogonalEdgeStyle;rounded=0;orthogonalLoop=1;jettySize=auto;html=1;" parent="1" source="4Y1HdvVBECPAu4U7Cjkl-6" target="PLrm1QrhNxz2fBl1tg_x-7" edge="1">
          <mxGeometry relative="1" as="geometry" />
        </mxCell>
        <mxCell id="4Y1HdvVBECPAu4U7Cjkl-6" value="&lt;span style=&quot;&quot;&gt;Enter First Name, Last Name,&lt;br&gt;Age, Gender,&amp;nbsp;&amp;nbsp;&lt;br&gt;Mobile Number, City, State, PinCode,&lt;br&gt;Aadhar Card Number, Pan Card Number, Initial Amount, Account Type&lt;br&gt;&lt;/span&gt;" style="shape=hexagon;perimeter=hexagonPerimeter2;whiteSpace=wrap;html=1;fixedSize=1;fillColor=#e6d0de;gradientColor=#d5739d;strokeColor=#996185;" parent="1" vertex="1">
          <mxGeometry x="575" y="320" width="230" height="120" as="geometry" />
        </mxCell>
        <mxCell id="PLrm1QrhNxz2fBl1tg_x-30" value="" style="edgeStyle=none;rounded=0;orthogonalLoop=1;jettySize=auto;html=1;" parent="1" source="PLrm1QrhNxz2fBl1tg_x-7" target="PLrm1QrhNxz2fBl1tg_x-10" edge="1">
          <mxGeometry relative="1" as="geometry">
            <Array as="points">
              <mxPoint x="690" y="630" />
            </Array>
          </mxGeometry>
        </mxCell>
        <mxCell id="PLrm1QrhNxz2fBl1tg_x-7" value="Show all the entered details to confirm" style="rounded=1;whiteSpace=wrap;html=1;fillColor=#e6d0de;gradientColor=#d5739d;strokeColor=#996185;" parent="1" vertex="1">
          <mxGeometry x="630" y="530" width="120" height="60" as="geometry" />
        </mxCell>
        <mxCell id="u9IJCRDn-GjgMqQaBnn5-57" value="" style="edgeStyle=orthogonalEdgeStyle;rounded=0;orthogonalLoop=1;jettySize=auto;html=1;" edge="1" parent="1" source="PLrm1QrhNxz2fBl1tg_x-10" target="PLrm1QrhNxz2fBl1tg_x-13">
          <mxGeometry relative="1" as="geometry">
            <Array as="points">
              <mxPoint x="690" y="760" />
              <mxPoint x="690" y="760" />
            </Array>
          </mxGeometry>
        </mxCell>
        <mxCell id="PLrm1QrhNxz2fBl1tg_x-10" value="Enter Account Number to Login" style="rounded=1;whiteSpace=wrap;html=1;fillColor=#d5e8d4;gradientColor=#97d077;strokeColor=#82b366;" parent="1" vertex="1">
          <mxGeometry x="600" y="680" width="180" height="40" as="geometry" />
        </mxCell>
        <mxCell id="fHEfCxY-Gqaza8mgLQRE-7" value="" style="edgeStyle=orthogonalEdgeStyle;rounded=0;orthogonalLoop=1;jettySize=auto;html=1;exitX=0.5;exitY=1;exitDx=0;exitDy=0;" parent="1" source="PLrm1QrhNxz2fBl1tg_x-13" edge="1">
          <mxGeometry relative="1" as="geometry">
            <mxPoint x="580" y="1040" as="targetPoint" />
          </mxGeometry>
        </mxCell>
        <mxCell id="fHEfCxY-Gqaza8mgLQRE-11" style="edgeStyle=orthogonalEdgeStyle;rounded=0;orthogonalLoop=1;jettySize=auto;html=1;entryX=0.5;entryY=0;entryDx=0;entryDy=0;" parent="1" source="PLrm1QrhNxz2fBl1tg_x-13" target="fHEfCxY-Gqaza8mgLQRE-6" edge="1">
          <mxGeometry relative="1" as="geometry" />
        </mxCell>
        <mxCell id="u9IJCRDn-GjgMqQaBnn5-16" value="" style="edgeStyle=orthogonalEdgeStyle;rounded=0;orthogonalLoop=1;jettySize=auto;html=1;" edge="1" parent="1" source="PLrm1QrhNxz2fBl1tg_x-13" target="u9IJCRDn-GjgMqQaBnn5-15">
          <mxGeometry relative="1" as="geometry" />
        </mxCell>
        <mxCell id="u9IJCRDn-GjgMqQaBnn5-61" value="" style="edgeStyle=orthogonalEdgeStyle;rounded=0;orthogonalLoop=1;jettySize=auto;html=1;" edge="1" parent="1">
          <mxGeometry relative="1" as="geometry">
            <mxPoint x="735" y="780" as="sourcePoint" />
            <mxPoint x="735" y="720" as="targetPoint" />
            <Array as="points">
              <mxPoint x="735" y="740" />
              <mxPoint x="735" y="740" />
            </Array>
          </mxGeometry>
        </mxCell>
        <mxCell id="PLrm1QrhNxz2fBl1tg_x-13" value="&lt;font style=&quot;font-size: 11px;&quot;&gt;Use the Bank services i.e&lt;br&gt;1. Check balance&lt;br&gt;2. insert amount&lt;br&gt;3. withdraw amount&lt;br&gt;4. edit account details&lt;br&gt;5.Transfer amount&amp;nbsp;&lt;br&gt;6.Transaction History&lt;br&gt;7. help&lt;br&gt;8. to create another account&lt;br&gt;9..Login&lt;br&gt;10.All account holders list&lt;br&gt;11. exit&lt;/font&gt;" style="whiteSpace=wrap;html=1;aspect=fixed;fillColor=#dae8fc;gradientColor=#7ea6e0;strokeColor=#6c8ebf;" parent="1" vertex="1">
          <mxGeometry x="600" y="770" width="190" height="190" as="geometry" />
        </mxCell>
        <mxCell id="PLrm1QrhNxz2fBl1tg_x-16" value="" style="ellipse;shape=cloud;whiteSpace=wrap;html=1;fillColor=#d5e8d4;gradientColor=#97d077;strokeColor=#82b366;" parent="1" vertex="1">
          <mxGeometry x="64.36999999999999" y="780" width="251.25" height="130" as="geometry" />
        </mxCell>
        <mxCell id="PLrm1QrhNxz2fBl1tg_x-17" value="Add all entered details inside the list" style="text;html=1;strokeColor=none;fillColor=none;align=center;verticalAlign=middle;whiteSpace=wrap;rounded=0;" parent="1" vertex="1">
          <mxGeometry x="110" y="830" width="160" height="35" as="geometry" />
        </mxCell>
        <mxCell id="PLrm1QrhNxz2fBl1tg_x-32" value="&lt;b&gt;YES&lt;/b&gt;" style="text;html=1;strokeColor=none;fillColor=none;align=center;verticalAlign=middle;whiteSpace=wrap;rounded=0;" parent="1" vertex="1">
          <mxGeometry x="690" y="600" width="50" height="60" as="geometry" />
        </mxCell>
        <mxCell id="PLrm1QrhNxz2fBl1tg_x-34" value="" style="shape=sumEllipse;perimeter=ellipsePerimeter;whiteSpace=wrap;html=1;backgroundOutline=1;fillColor=#ed311d;strokeColor=#ae4132;gradientColor=#d1a8a8;" parent="1" vertex="1">
          <mxGeometry x="100" y="350" width="50" height="50" as="geometry" />
        </mxCell>
        <mxCell id="PLrm1QrhNxz2fBl1tg_x-40" value="&lt;font size=&quot;1&quot; style=&quot;&quot;&gt;&lt;span style=&quot;font-size: 18px;&quot;&gt;WELCOME TO&lt;br&gt;&lt;b&gt;&amp;nbsp;TEZO BANK&lt;/b&gt;&lt;/span&gt;&lt;/font&gt;" style="text;html=1;strokeColor=none;fillColor=none;align=center;verticalAlign=middle;whiteSpace=wrap;rounded=0;" parent="1" vertex="1">
          <mxGeometry x="180" y="90" width="190" height="60" as="geometry" />
        </mxCell>
        <mxCell id="PLrm1QrhNxz2fBl1tg_x-42" value="Add&amp;nbsp;" style="text;html=1;strokeColor=none;fillColor=none;align=center;verticalAlign=middle;whiteSpace=wrap;rounded=0;" parent="1" vertex="1">
          <mxGeometry x="445" y="600" width="85" height="30" as="geometry" />
        </mxCell>
        <mxCell id="PLrm1QrhNxz2fBl1tg_x-44" style="edgeStyle=none;rounded=0;orthogonalLoop=1;jettySize=auto;html=1;exitX=0.75;exitY=1;exitDx=0;exitDy=0;" parent="1" source="PLrm1QrhNxz2fBl1tg_x-40" target="PLrm1QrhNxz2fBl1tg_x-40" edge="1">
          <mxGeometry relative="1" as="geometry" />
        </mxCell>
        <mxCell id="PLrm1QrhNxz2fBl1tg_x-52" value="" style="shape=flexArrow;endArrow=classic;html=1;rounded=0;exitX=0;exitY=0.5;exitDx=0;exitDy=0;endWidth=36.470588235294116;endSize=14.883333333333333;width=20;" parent="1" source="PLrm1QrhNxz2fBl1tg_x-13" edge="1">
          <mxGeometry width="50" height="50" relative="1" as="geometry">
            <mxPoint x="460" y="910" as="sourcePoint" />
            <mxPoint x="320" y="870" as="targetPoint" />
          </mxGeometry>
        </mxCell>
        <mxCell id="PLrm1QrhNxz2fBl1tg_x-67" value="" style="verticalLabelPosition=bottom;verticalAlign=top;html=1;shape=mxgraph.basic.frame;dx=10;whiteSpace=wrap;fillColor=#fff2cc;gradientColor=#ffd966;strokeColor=#d6b656;" parent="1" vertex="1">
          <mxGeometry x="50" y="990" width="300" height="110" as="geometry" />
        </mxCell>
        <mxCell id="PLrm1QrhNxz2fBl1tg_x-70" value="" style="shape=singleArrow;direction=south;whiteSpace=wrap;html=1;arrowWidth=0.2941175273820515;arrowSize=0.44453822544642857;fillColor=#bac8d3;strokeColor=#23445d;" parent="1" vertex="1">
          <mxGeometry x="222.5" y="910" width="60" height="70" as="geometry" />
        </mxCell>
        <mxCell id="PLrm1QrhNxz2fBl1tg_x-71" value="&amp;nbsp;Do the respective Operation&amp;nbsp;" style="text;html=1;strokeColor=none;fillColor=none;align=center;verticalAlign=middle;whiteSpace=wrap;rounded=0;" parent="1" vertex="1">
          <mxGeometry x="120" y="1030" width="160" height="30" as="geometry" />
        </mxCell>
        <mxCell id="PLrm1QrhNxz2fBl1tg_x-86" value="" style="edgeStyle=elbowEdgeStyle;elbow=vertical;endArrow=classic;html=1;curved=0;rounded=0;endSize=8;startSize=8;exitX=0;exitY=0.25;exitDx=0;exitDy=0;entryX=0.486;entryY=0.049;entryDx=0;entryDy=0;entryPerimeter=0;" parent="1" source="PLrm1QrhNxz2fBl1tg_x-32" target="PLrm1QrhNxz2fBl1tg_x-16" edge="1">
          <mxGeometry width="50" height="50" relative="1" as="geometry">
            <mxPoint x="285" y="850" as="sourcePoint" />
            <mxPoint x="190" y="650" as="targetPoint" />
            <Array as="points">
              <mxPoint x="330" y="630" />
            </Array>
          </mxGeometry>
        </mxCell>
        <mxCell id="PLrm1QrhNxz2fBl1tg_x-92" value="8" style="text;html=1;strokeColor=none;fillColor=none;align=center;verticalAlign=middle;whiteSpace=wrap;rounded=0;" parent="1" vertex="1">
          <mxGeometry x="770" y="830" width="60" height="30" as="geometry" />
        </mxCell>
        <mxCell id="PLrm1QrhNxz2fBl1tg_x-111" value="&lt;font style=&quot;font-size: 19px;&quot;&gt;3&lt;/font&gt;" style="text;html=1;strokeColor=none;fillColor=none;align=center;verticalAlign=middle;whiteSpace=wrap;rounded=0;fontSize=19;fontFamily=Comic Sans MS;fontStyle=1" parent="1" vertex="1">
          <mxGeometry x="100" y="57.5" width="100" height="65" as="geometry" />
        </mxCell>
        <mxCell id="PLrm1QrhNxz2fBl1tg_x-114" value="" style="edgeStyle=elbowEdgeStyle;elbow=vertical;endArrow=classic;html=1;curved=0;rounded=0;endSize=8;startSize=8;exitX=0;exitY=0.667;exitDx=0;exitDy=0;exitPerimeter=0;" parent="1" source="PLrm1QrhNxz2fBl1tg_x-7" edge="1">
          <mxGeometry width="50" height="50" relative="1" as="geometry">
            <mxPoint x="620" y="565" as="sourcePoint" />
            <mxPoint x="120" y="400" as="targetPoint" />
            <Array as="points">
              <mxPoint x="570" y="570" />
              <mxPoint x="160" y="540" />
            </Array>
          </mxGeometry>
        </mxCell>
        <mxCell id="PLrm1QrhNxz2fBl1tg_x-115" value="NO" style="text;strokeColor=none;fillColor=none;html=1;fontSize=11;fontStyle=0;verticalAlign=middle;align=center;" parent="1" vertex="1">
          <mxGeometry x="550" y="535" width="90" height="30" as="geometry" />
        </mxCell>
        <mxCell id="PLrm1QrhNxz2fBl1tg_x-116" value="Exit" style="text;strokeColor=none;fillColor=none;html=1;fontSize=24;fontStyle=1;verticalAlign=middle;align=center;" parent="1" vertex="1">
          <mxGeometry x="75" y="360" width="100" height="30" as="geometry" />
        </mxCell>
        <mxCell id="PLrm1QrhNxz2fBl1tg_x-118" value="RESULT" style="text;html=1;strokeColor=none;fillColor=none;align=center;verticalAlign=middle;whiteSpace=wrap;rounded=0;" parent="1" vertex="1">
          <mxGeometry x="150" y="1210" width="60" height="30" as="geometry" />
        </mxCell>
        <mxCell id="PLrm1QrhNxz2fBl1tg_x-122" value="RESULT" style="shape=ext;double=1;rounded=1;whiteSpace=wrap;html=1;fillColor=#b1ddf0;strokeColor=#10739e;" parent="1" vertex="1">
          <mxGeometry x="120.00000000000001" y="1205" width="135" height="40" as="geometry" />
        </mxCell>
        <mxCell id="PLrm1QrhNxz2fBl1tg_x-124" value="" style="shape=singleArrow;direction=north;whiteSpace=wrap;html=1;fillColor=#fad9d5;strokeColor=#ae4132;" parent="1" vertex="1">
          <mxGeometry x="100" y="910" width="60" height="70" as="geometry" />
        </mxCell>
        <mxCell id="PLrm1QrhNxz2fBl1tg_x-125" value="" style="shape=singleArrow;whiteSpace=wrap;html=1;direction=south;" parent="1" vertex="1">
          <mxGeometry x="180" y="1110" width="30" height="90" as="geometry" />
        </mxCell>
        <mxCell id="PLrm1QrhNxz2fBl1tg_x-126" value="Update" style="text;html=1;strokeColor=none;fillColor=none;align=center;verticalAlign=middle;whiteSpace=wrap;rounded=0;" parent="1" vertex="1">
          <mxGeometry x="162.5" y="930" width="50" height="20" as="geometry" />
        </mxCell>
        <mxCell id="PLrm1QrhNxz2fBl1tg_x-127" value="1 / 2 / 3 / 4 / 6 / 10" style="text;html=1;strokeColor=none;fillColor=none;align=center;verticalAlign=middle;whiteSpace=wrap;rounded=0;" parent="1" vertex="1">
          <mxGeometry x="370" y="830" width="220" height="30" as="geometry" />
        </mxCell>
        <mxCell id="fHEfCxY-Gqaza8mgLQRE-5" value="Enter user Acc Num" style="rounded=1;whiteSpace=wrap;html=1;" parent="1" vertex="1">
          <mxGeometry x="510" y="1047.5" width="130" height="52.5" as="geometry" />
        </mxCell>
        <mxCell id="fHEfCxY-Gqaza8mgLQRE-6" value="Enter Receiver Acc Num" style="rounded=1;whiteSpace=wrap;html=1;" parent="1" vertex="1">
          <mxGeometry x="735" y="1040" width="130" height="60" as="geometry" />
        </mxCell>
        <mxCell id="fHEfCxY-Gqaza8mgLQRE-12" value="" style="shape=partialRectangle;whiteSpace=wrap;html=1;bottom=1;right=1;left=1;top=0;fillColor=none;routingCenterX=-0.5;" parent="1" vertex="1">
          <mxGeometry x="580" y="1110" width="220" height="60" as="geometry" />
        </mxCell>
        <mxCell id="fHEfCxY-Gqaza8mgLQRE-13" value="" style="endArrow=classic;startArrow=classic;html=1;rounded=0;" parent="1" source="PLrm1QrhNxz2fBl1tg_x-16" edge="1" target="fHEfCxY-Gqaza8mgLQRE-12">
          <mxGeometry width="50" height="50" relative="1" as="geometry">
            <mxPoint x="279.9993823518046" y="870.5224677595909" as="sourcePoint" />
            <mxPoint x="676" y="1179.48" as="targetPoint" />
            <Array as="points">
              <mxPoint x="451.33" y="959.48" />
              <mxPoint x="451.33" y="1059.48" />
              <mxPoint x="451.33" y="1219.48" />
              <mxPoint x="690" y="1220" />
              <mxPoint x="690" y="1200" />
              <mxPoint x="690" y="1170" />
            </Array>
          </mxGeometry>
        </mxCell>
        <mxCell id="fHEfCxY-Gqaza8mgLQRE-19" value="&amp;nbsp; &amp;nbsp; &amp;nbsp; &amp;nbsp; &amp;nbsp;&amp;lt;-------&amp;nbsp; &amp;nbsp; Check Account&amp;nbsp; Exist" style="text;html=1;align=center;verticalAlign=middle;resizable=0;points=[];autosize=1;strokeColor=none;fillColor=none;" parent="1" vertex="1">
          <mxGeometry x="440" y="1190" width="210" height="30" as="geometry" />
        </mxCell>
        <mxCell id="fHEfCxY-Gqaza8mgLQRE-20" value="&lt;span style=&quot;font-weight: normal; font-size: 16px;&quot;&gt;Y&lt;br&gt;e&lt;br&gt;s&lt;br&gt;/&lt;br&gt;N&lt;br&gt;o&lt;br&gt;&lt;br&gt;&lt;/span&gt;" style="text;strokeColor=none;fillColor=none;html=1;fontSize=24;fontStyle=1;verticalAlign=middle;align=center;" parent="1" vertex="1">
          <mxGeometry x="415" y="990" width="40" height="230" as="geometry" />
        </mxCell>
        <mxCell id="u9IJCRDn-GjgMqQaBnn5-2" value="" style="shape=waypoint;sketch=0;size=6;pointerEvents=1;points=[];fillColor=#b1ddf0;resizable=0;rotatable=0;perimeter=centerPerimeter;snapToPoint=1;strokeColor=#10739e;" vertex="1" parent="1">
          <mxGeometry x="262.5" y="680" width="20" height="20" as="geometry" />
        </mxCell>
        <mxCell id="u9IJCRDn-GjgMqQaBnn5-4" value="" style="shape=waypoint;sketch=0;size=6;pointerEvents=1;points=[];fillColor=#b1ddf0;resizable=0;rotatable=0;perimeter=centerPerimeter;snapToPoint=1;strokeColor=#10739e;" vertex="1" parent="1">
          <mxGeometry x="590" y="680" width="20" height="20" as="geometry" />
        </mxCell>
        <mxCell id="u9IJCRDn-GjgMqQaBnn5-37" value="" style="edgeStyle=orthogonalEdgeStyle;rounded=0;orthogonalLoop=1;jettySize=auto;html=1;" edge="1" parent="1" source="u9IJCRDn-GjgMqQaBnn5-7" target="u9IJCRDn-GjgMqQaBnn5-36">
          <mxGeometry relative="1" as="geometry" />
        </mxCell>
        <mxCell id="u9IJCRDn-GjgMqQaBnn5-7" value="LOGIN" style="ellipse;whiteSpace=wrap;html=1;fillColor=#fff2cc;strokeColor=#d6b656;" vertex="1" parent="1">
          <mxGeometry x="870" y="360" width="80" height="60" as="geometry" />
        </mxCell>
        <mxCell id="u9IJCRDn-GjgMqQaBnn5-18" value="" style="edgeStyle=orthogonalEdgeStyle;rounded=0;orthogonalLoop=1;jettySize=auto;html=1;" edge="1" parent="1" source="u9IJCRDn-GjgMqQaBnn5-15" target="u9IJCRDn-GjgMqQaBnn5-17">
          <mxGeometry relative="1" as="geometry">
            <Array as="points">
              <mxPoint x="980" y="865" />
              <mxPoint x="980" y="125" />
            </Array>
          </mxGeometry>
        </mxCell>
        <mxCell id="u9IJCRDn-GjgMqQaBnn5-15" value="" style="shape=waypoint;sketch=0;size=6;pointerEvents=1;points=[];fillColor=#dae8fc;resizable=0;rotatable=0;perimeter=centerPerimeter;snapToPoint=1;strokeColor=#6c8ebf;gradientColor=#7ea6e0;" vertex="1" parent="1">
          <mxGeometry x="880" y="855" width="20" height="20" as="geometry" />
        </mxCell>
        <mxCell id="u9IJCRDn-GjgMqQaBnn5-20" value="" style="edgeStyle=orthogonalEdgeStyle;rounded=0;orthogonalLoop=1;jettySize=auto;html=1;entryX=1;entryY=0.5;entryDx=0;entryDy=0;" edge="1" parent="1" source="u9IJCRDn-GjgMqQaBnn5-17" target="4Y1HdvVBECPAu4U7Cjkl-5">
          <mxGeometry relative="1" as="geometry" />
        </mxCell>
        <mxCell id="u9IJCRDn-GjgMqQaBnn5-17" value="" style="shape=waypoint;sketch=0;size=6;pointerEvents=1;points=[];fillColor=#dae8fc;resizable=0;rotatable=0;perimeter=centerPerimeter;snapToPoint=1;strokeColor=#6c8ebf;gradientColor=#7ea6e0;" vertex="1" parent="1">
          <mxGeometry x="880" y="115" width="20" height="20" as="geometry" />
        </mxCell>
        <mxCell id="u9IJCRDn-GjgMqQaBnn5-19" value="" style="shape=waypoint;sketch=0;size=6;pointerEvents=1;points=[];fillColor=#dae8fc;resizable=0;rotatable=0;perimeter=centerPerimeter;snapToPoint=1;strokeColor=#6c8ebf;gradientColor=#7ea6e0;" vertex="1" parent="1">
          <mxGeometry x="780" y="115" width="20" height="20" as="geometry" />
        </mxCell>
        <mxCell id="u9IJCRDn-GjgMqQaBnn5-22" value="&lt;b&gt;&lt;font style=&quot;font-size: 18px;&quot;&gt;1&lt;/font&gt;&lt;/b&gt;" style="text;html=1;align=center;verticalAlign=middle;resizable=0;points=[];autosize=1;strokeColor=none;fillColor=none;" vertex="1" parent="1">
          <mxGeometry x="420" y="82.5" width="30" height="40" as="geometry" />
        </mxCell>
        <mxCell id="u9IJCRDn-GjgMqQaBnn5-33" value="" style="edgeStyle=orthogonalEdgeStyle;rounded=0;orthogonalLoop=1;jettySize=auto;html=1;" edge="1" parent="1" source="u9IJCRDn-GjgMqQaBnn5-30" target="u9IJCRDn-GjgMqQaBnn5-32">
          <mxGeometry relative="1" as="geometry" />
        </mxCell>
        <mxCell id="u9IJCRDn-GjgMqQaBnn5-30" value="" style="shape=waypoint;sketch=0;size=6;pointerEvents=1;points=[];fillColor=none;resizable=0;rotatable=0;perimeter=centerPerimeter;snapToPoint=1;" vertex="1" parent="1">
          <mxGeometry x="270" y="217.5" width="20" height="20" as="geometry" />
        </mxCell>
        <mxCell id="u9IJCRDn-GjgMqQaBnn5-35" value="" style="edgeStyle=orthogonalEdgeStyle;rounded=0;orthogonalLoop=1;jettySize=auto;html=1;" edge="1" parent="1" source="u9IJCRDn-GjgMqQaBnn5-32" target="u9IJCRDn-GjgMqQaBnn5-34">
          <mxGeometry relative="1" as="geometry" />
        </mxCell>
        <mxCell id="u9IJCRDn-GjgMqQaBnn5-32" value="" style="shape=waypoint;sketch=0;size=6;pointerEvents=1;points=[];fillColor=none;resizable=0;rotatable=0;perimeter=centerPerimeter;snapToPoint=1;" vertex="1" parent="1">
          <mxGeometry x="900" y="217.5" width="20" height="20" as="geometry" />
        </mxCell>
        <mxCell id="u9IJCRDn-GjgMqQaBnn5-34" value="" style="shape=waypoint;sketch=0;size=6;pointerEvents=1;points=[];fillColor=none;resizable=0;rotatable=0;perimeter=centerPerimeter;snapToPoint=1;" vertex="1" parent="1">
          <mxGeometry x="900" y="340" width="20" height="20" as="geometry" />
        </mxCell>
        <mxCell id="u9IJCRDn-GjgMqQaBnn5-40" value="" style="edgeStyle=orthogonalEdgeStyle;rounded=0;orthogonalLoop=1;jettySize=auto;html=1;" edge="1" parent="1" source="u9IJCRDn-GjgMqQaBnn5-36" target="u9IJCRDn-GjgMqQaBnn5-38">
          <mxGeometry relative="1" as="geometry" />
        </mxCell>
        <mxCell id="u9IJCRDn-GjgMqQaBnn5-36" value="" style="shape=waypoint;sketch=0;size=6;pointerEvents=1;points=[];fillColor=#fff2cc;resizable=0;rotatable=0;perimeter=centerPerimeter;snapToPoint=1;strokeColor=#d6b656;" vertex="1" parent="1">
          <mxGeometry x="900" y="690" width="20" height="20" as="geometry" />
        </mxCell>
        <mxCell id="u9IJCRDn-GjgMqQaBnn5-38" value="" style="shape=waypoint;sketch=0;size=6;pointerEvents=1;points=[];fillColor=#fff2cc;resizable=0;rotatable=0;perimeter=centerPerimeter;snapToPoint=1;strokeColor=#d6b656;" vertex="1" parent="1">
          <mxGeometry x="770" y="690" width="20" height="20" as="geometry" />
        </mxCell>
        <mxCell id="u9IJCRDn-GjgMqQaBnn5-41" value="&lt;b&gt;&lt;font style=&quot;font-size: 21px;&quot;&gt;2&lt;/font&gt;&lt;/b&gt;" style="text;html=1;align=center;verticalAlign=middle;resizable=0;points=[];autosize=1;strokeColor=none;fillColor=none;" vertex="1" parent="1">
          <mxGeometry x="350" y="190" width="40" height="40" as="geometry" />
        </mxCell>
        <mxCell id="u9IJCRDn-GjgMqQaBnn5-59" value="&lt;b&gt;&lt;font style=&quot;font-size: 18px;&quot;&gt;5&lt;/font&gt;&lt;/b&gt;" style="text;html=1;align=center;verticalAlign=middle;resizable=0;points=[];autosize=1;strokeColor=none;fillColor=none;" vertex="1" parent="1">
          <mxGeometry x="705" y="955" width="30" height="40" as="geometry" />
        </mxCell>
        <mxCell id="u9IJCRDn-GjgMqQaBnn5-62" value="9" style="text;html=1;align=center;verticalAlign=middle;resizable=0;points=[];autosize=1;strokeColor=none;fillColor=none;" vertex="1" parent="1">
          <mxGeometry x="735" y="728" width="30" height="30" as="geometry" />
        </mxCell>
        <mxCell id="u9IJCRDn-GjgMqQaBnn5-65" style="edgeStyle=orthogonalEdgeStyle;rounded=0;orthogonalLoop=1;jettySize=auto;html=1;exitX=0;exitY=0;exitDx=0;exitDy=0;" edge="1" parent="1">
          <mxGeometry relative="1" as="geometry">
            <mxPoint x="520" y="570" as="targetPoint" />
            <mxPoint x="599.98" y="810.0000000000002" as="sourcePoint" />
          </mxGeometry>
        </mxCell>
        <mxCell id="u9IJCRDn-GjgMqQaBnn5-66" value="11" style="text;html=1;align=center;verticalAlign=middle;resizable=0;points=[];autosize=1;strokeColor=none;fillColor=none;" vertex="1" parent="1">
          <mxGeometry x="530" y="768" width="40" height="30" as="geometry" />
        </mxCell>
      </root>
    </mxGraphModel>
  </diagram>
</mxfile>
